<svg width="185" height="22" viewBox="0 0 185 22" fill="none" xmlns="http://www.w3.org/2000/svg">
<path d="M14.9728 21L13.0128 15.232H5.11681L3.15681 21H0.776813L7.60881 1.456H10.6048L17.4368 21H14.9728ZM9.12081 3.64H8.98081L5.67681 13.16H12.4248L9.12081 3.64ZM25.8263 21.336C24.8183 21.336 23.913 21.1587 23.1103 20.804C22.3076 20.4493 21.6263 19.9453 21.0663 19.292C20.525 18.6387 20.105 17.8453 19.8063 16.912C19.5263 15.9787 19.3863 14.9333 19.3863 13.776C19.3863 12.6187 19.5263 11.5733 19.8063 10.64C20.105 9.70667 20.525 8.91333 21.0663 8.26C21.6263 7.60667 22.3076 7.10267 23.1103 6.748C23.913 6.39333 24.8183 6.216 25.8263 6.216C27.2636 6.216 28.4116 6.53333 29.2703 7.168C30.1476 7.784 30.801 8.596 31.2303 9.604L29.3543 10.556C29.093 9.80933 28.6636 9.23067 28.0663 8.82C27.469 8.40933 26.7223 8.204 25.8263 8.204C25.1543 8.204 24.5663 8.316 24.0623 8.54C23.5583 8.74533 23.1383 9.044 22.8023 9.436C22.4663 9.80933 22.2143 10.2667 22.0463 10.808C21.8783 11.3307 21.7943 11.9093 21.7943 12.544V15.008C21.7943 16.2773 22.1303 17.3227 22.8023 18.144C23.493 18.9467 24.501 19.348 25.8263 19.348C27.637 19.348 28.9436 18.508 29.7463 16.828L31.3703 17.92C30.9036 18.9653 30.2036 19.796 29.2703 20.412C28.3556 21.028 27.2076 21.336 25.8263 21.336ZM39.8003 21.336C38.8109 21.336 37.9149 21.1587 37.1123 20.804C36.3283 20.4493 35.6469 19.9453 35.0683 19.292C34.5083 18.62 34.0696 17.8267 33.7523 16.912C33.4536 15.9787 33.3043 14.9333 33.3043 13.776C33.3043 12.6373 33.4536 11.6013 33.7523 10.668C34.0696 9.73467 34.5083 8.94133 35.0683 8.288C35.6469 7.616 36.3283 7.10267 37.1123 6.748C37.9149 6.39333 38.8109 6.216 39.8003 6.216C40.7709 6.216 41.6389 6.39333 42.4043 6.748C43.1696 7.10267 43.8229 7.59733 44.3643 8.232C44.9056 8.848 45.3163 9.58533 45.5963 10.444C45.8949 11.3027 46.0443 12.2453 46.0443 13.272V14.336H35.6563V15.008C35.6563 15.624 35.7496 16.2027 35.9363 16.744C36.1416 17.2667 36.4216 17.724 36.7763 18.116C37.1496 18.508 37.5976 18.816 38.1203 19.04C38.6616 19.264 39.2683 19.376 39.9403 19.376C40.8549 19.376 41.6483 19.1613 42.3203 18.732C43.0109 18.3027 43.5429 17.6867 43.9163 16.884L45.5123 18.032C45.0456 19.0213 44.3176 19.824 43.3283 20.44C42.3389 21.0373 41.1629 21.336 39.8003 21.336ZM39.8003 8.092C39.1843 8.092 38.6243 8.204 38.1203 8.428C37.6163 8.63333 37.1776 8.932 36.8043 9.324C36.4496 9.716 36.1696 10.1827 35.9643 10.724C35.7589 11.2467 35.6563 11.8253 35.6563 12.46V12.656H43.6363V12.348C43.6363 11.06 43.2816 10.0333 42.5723 9.268C41.8816 8.484 40.9576 8.092 39.8003 8.092ZM50.8555 3.164C50.3701 3.164 50.0155 3.052 49.7915 2.828C49.5861 2.58533 49.4835 2.27733 49.4835 1.904V1.54C49.4835 1.16667 49.5861 0.867999 49.7915 0.643998C50.0155 0.401333 50.3701 0.28 50.8555 0.28C51.3408 0.28 51.6861 0.401333 51.8915 0.643998C52.1155 0.867999 52.2275 1.16667 52.2275 1.54V1.904C52.2275 2.27733 52.1155 2.58533 51.8915 2.828C51.6861 3.052 51.3408 3.164 50.8555 3.164ZM49.7355 6.552H51.9755V21H49.7355V6.552ZM59.9275 21C59.1435 21 58.5461 20.7853 58.1355 20.356C57.7435 19.908 57.5475 19.3293 57.5475 18.62V8.512H55.1675V6.552H56.5115C56.9968 6.552 57.3235 6.45867 57.4915 6.272C57.6781 6.06667 57.7715 5.72133 57.7715 5.236V2.548H59.7875V6.552H62.9515V8.512H59.7875V19.04H62.7275V21H59.9275ZM77.0519 21C76.2119 21 75.6052 20.776 75.2319 20.328C74.8772 19.88 74.6532 19.32 74.5599 18.648H74.4199C74.1025 19.544 73.5799 20.216 72.8519 20.664C72.1239 21.112 71.2559 21.336 70.2479 21.336C68.7172 21.336 67.5225 20.944 66.6639 20.16C65.8239 19.376 65.4039 18.312 65.4039 16.968C65.4039 15.6053 65.8985 14.56 66.8879 13.832C67.8959 13.104 69.4545 12.74 71.5639 12.74H74.4199V11.312C74.4199 10.2853 74.1399 9.50133 73.5799 8.96C73.0199 8.41867 72.1612 8.148 71.0039 8.148C70.1265 8.148 69.3892 8.344 68.7919 8.736C68.2132 9.128 67.7279 9.65067 67.3359 10.304L65.9919 9.044C66.3839 8.26 67.0092 7.59733 67.8679 7.056C68.7265 6.496 69.8092 6.216 71.1159 6.216C72.8705 6.216 74.2332 6.64533 75.2039 7.504C76.1745 8.36267 76.6599 9.55733 76.6599 11.088V19.04H78.3119V21H77.0519ZM70.6119 19.432C71.1719 19.432 71.6852 19.3667 72.1519 19.236C72.6185 19.1053 73.0199 18.9187 73.3559 18.676C73.6919 18.4333 73.9532 18.1533 74.1399 17.836C74.3265 17.5187 74.4199 17.1733 74.4199 16.8V14.42H71.4519C70.1639 14.42 69.2212 14.6067 68.6239 14.98C68.0452 15.3533 67.7559 15.8947 67.7559 16.604V17.192C67.7559 17.9013 68.0079 18.452 68.5119 18.844C69.0345 19.236 69.7345 19.432 70.6119 19.432ZM81.5089 21V6.552H83.7489V8.904H83.8609C84.0289 8.53067 84.2156 8.18533 84.4209 7.868C84.6449 7.532 84.9062 7.24267 85.2049 7C85.5222 6.75733 85.8862 6.57067 86.2969 6.44C86.7076 6.29067 87.1929 6.216 87.7529 6.216C88.7049 6.216 89.5822 6.44933 90.3849 6.916C91.1876 7.364 91.7849 8.11067 92.1769 9.156H92.2329C92.4942 8.372 92.9796 7.69067 93.6889 7.112C94.4169 6.51467 95.3969 6.216 96.6289 6.216C98.1036 6.216 99.2516 6.70133 100.073 7.672C100.913 8.624 101.333 9.97733 101.333 11.732V21H99.0929V12.124C99.0929 10.836 98.8409 9.86533 98.3369 9.212C97.8329 8.55867 97.0302 8.232 95.9289 8.232C95.4809 8.232 95.0516 8.288 94.6409 8.4C94.2489 8.512 93.8942 8.68 93.5769 8.904C93.2596 9.128 93.0076 9.41733 92.8209 9.772C92.6342 10.108 92.5409 10.5093 92.5409 10.976V21H90.3009V12.124C90.3009 10.836 90.0489 9.86533 89.5449 9.212C89.0409 8.55867 88.2569 8.232 87.1929 8.232C86.7449 8.232 86.3156 8.288 85.9049 8.4C85.4942 8.512 85.1302 8.68 84.8129 8.904C84.4956 9.128 84.2342 9.41733 84.0289 9.772C83.8422 10.108 83.7489 10.5093 83.7489 10.976V21H81.5089ZM111.414 21.336C110.444 21.336 109.557 21.1587 108.754 20.804C107.952 20.4493 107.261 19.9453 106.682 19.292C106.122 18.62 105.684 17.8267 105.366 16.912C105.049 15.9787 104.89 14.9333 104.89 13.776C104.89 12.6373 105.049 11.6013 105.366 10.668C105.684 9.73467 106.122 8.94133 106.682 8.288C107.261 7.616 107.952 7.10267 108.754 6.748C109.557 6.39333 110.444 6.216 111.414 6.216C112.385 6.216 113.262 6.39333 114.046 6.748C114.849 7.10267 115.54 7.616 116.118 8.288C116.697 8.94133 117.145 9.73467 117.462 10.668C117.78 11.6013 117.938 12.6373 117.938 13.776C117.938 14.9333 117.78 15.9787 117.462 16.912C117.145 17.8267 116.697 18.62 116.118 19.292C115.54 19.9453 114.849 20.4493 114.046 20.804C113.262 21.1587 112.385 21.336 111.414 21.336ZM111.414 19.348C112.628 19.348 113.617 18.9747 114.382 18.228C115.148 17.4813 115.53 16.3427 115.53 14.812V12.74C115.53 11.2093 115.148 10.0707 114.382 9.324C113.617 8.57733 112.628 8.204 111.414 8.204C110.201 8.204 109.212 8.57733 108.446 9.324C107.681 10.0707 107.298 11.2093 107.298 12.74V14.812C107.298 16.3427 107.681 17.4813 108.446 18.228C109.212 18.9747 110.201 19.348 111.414 19.348ZM125.962 21.336C124.618 21.336 123.489 21.084 122.574 20.58C121.678 20.0573 120.904 19.3667 120.25 18.508L121.846 17.22C122.406 17.9293 123.032 18.48 123.722 18.872C124.413 19.2453 125.216 19.432 126.13 19.432C127.082 19.432 127.82 19.2267 128.342 18.816C128.884 18.4053 129.154 17.8267 129.154 17.08C129.154 16.52 128.968 16.044 128.594 15.652C128.24 15.2413 127.586 14.9613 126.634 14.812L125.486 14.644C124.814 14.5507 124.198 14.4107 123.638 14.224C123.078 14.0187 122.584 13.7573 122.154 13.44C121.744 13.104 121.417 12.6933 121.174 12.208C120.95 11.7227 120.838 11.144 120.838 10.472C120.838 9.76267 120.969 9.14667 121.23 8.624C121.492 8.08267 121.846 7.63467 122.294 7.28C122.761 6.92533 123.312 6.664 123.946 6.496C124.581 6.30933 125.262 6.216 125.99 6.216C127.166 6.216 128.146 6.42133 128.93 6.832C129.733 7.24267 130.433 7.812 131.03 8.54L129.546 9.884C129.229 9.436 128.762 9.03467 128.146 8.68C127.53 8.30667 126.756 8.12 125.822 8.12C124.889 8.12 124.18 8.32533 123.694 8.736C123.228 9.128 122.994 9.66933 122.994 10.36C122.994 11.0693 123.228 11.5827 123.694 11.9C124.18 12.2173 124.87 12.4507 125.766 12.6L126.886 12.768C128.492 13.0107 129.63 13.4773 130.302 14.168C130.974 14.84 131.31 15.7267 131.31 16.828C131.31 18.228 130.834 19.3293 129.882 20.132C128.93 20.9347 127.624 21.336 125.962 21.336ZM142.108 21V1.456H149.892C151.647 1.456 152.991 1.96 153.924 2.968C154.876 3.95733 155.352 5.32 155.352 7.056C155.352 8.792 154.876 10.164 153.924 11.172C152.991 12.1613 151.647 12.656 149.892 12.656H144.46V21H142.108ZM144.46 10.584H149.892C150.825 10.584 151.544 10.3413 152.048 9.856C152.571 9.37067 152.832 8.68 152.832 7.784V6.328C152.832 5.432 152.571 4.74133 152.048 4.256C151.544 3.77067 150.825 3.528 149.892 3.528H144.46V10.584ZM158.164 21V19.04H160.908V3.416H158.164V1.456H166.004V3.416H163.26V19.04H166.004V21H158.164ZM184.187 21H181.359L176.235 12.796H176.179L171.055 21H168.367L174.751 11.06L168.535 1.456H171.363L176.263 9.24H176.319L181.331 1.456H184.019L177.747 10.976L184.187 21Z" fill="white"/>
</svg>
