<svg width="49" height="31" viewBox="0 0 49 31" fill="none" xmlns="http://www.w3.org/2000/svg">
<path d="M47 27H15.771L16.438 25.918C16.724 25.454 16.808 24.893 16.671 24.365L16.02 21.859L45.003 20.353C46.102 20.297 47 19.35 47 18.25V5C47 3.9 46.1 3 45 3H11.119L10.728 1.497C10.6166 1.06833 10.3661 0.688755 10.0157 0.417826C9.66531 0.146896 9.23491 -6.31824e-05 8.792 2.03776e-08H2C1.46957 2.03776e-08 0.960859 0.210714 0.585786 0.585786C0.210714 0.960859 0 1.46957 0 2C0 2.53043 0.210714 3.03914 0.585786 3.41421C0.960859 3.78929 1.46957 4 2 4H7.246L12.586 24.545L10.486 27.95C10.2992 28.253 10.1967 28.6003 10.1892 28.9562C10.1816 29.312 10.2692 29.6634 10.443 29.974C10.616 30.285 10.8691 30.5441 11.1759 30.7245C11.4827 30.9049 11.8321 31 12.188 31H47C47.5304 31 48.0391 30.7893 48.4142 30.4142C48.7893 30.0391 49 29.5304 49 29C49 28.4696 48.7893 27.9609 48.4142 27.5858C48.0391 27.2107 47.5304 27 47 27Z" fill="#335AA0"/>
</svg>
