<svg width="50" height="56" viewBox="0 0 50 56" fill="none" xmlns="http://www.w3.org/2000/svg">
<path d="M43.77 42.9305C46.7504 39.9555 48.438 35.9901 48.438 31.875C48.438 27.5018 46.6101 23.4118 43.2908 20.3579C40.0604 17.3866 35.7844 15.75 31.25 15.75C26.7156 15.75 22.4396 17.3866 19.2097 20.3581C15.8904 23.4118 14.0625 27.5018 14.0625 31.875C14.0625 36.2483 15.8904 40.3383 19.2097 43.3922C22.4396 46.3637 26.7156 48.0002 31.25 48.0002C31.8542 48.0002 32.4621 47.9703 33.0649 47.911L34.0948 48.9107C37.6428 52.3542 42.1802 54.2498 46.875 54.25H48.4375V50.525L47.9799 50.0126C46.1746 47.9847 44.7441 45.5781 43.77 42.9305ZM36.1415 46.2656L34.075 44.2596L33.3859 44.3542C32.6773 44.4512 31.964 44.4999 31.25 44.5C23.4961 44.5 17.1875 38.8364 17.1875 31.875C17.1875 24.9137 23.4961 19.25 31.25 19.25C39.0039 19.25 45.3125 24.9135 45.3125 31.875C45.3125 35.3433 43.7676 38.5813 40.9623 40.9923L40.0624 41.7657L40.4776 43.082C41.3286 45.7705 42.5794 48.2783 44.177 50.4995C41.2017 49.9433 38.4211 48.4782 36.1415 46.2656Z" fill="#335AA0"/>
<path d="M5.87744 34.7239C7.34007 32.6503 8.48844 30.3216 9.27666 27.8308L9.68877 26.521L8.78965 25.7482C6.14434 23.4747 4.6875 20.4234 4.6875 17.1562C4.6875 10.5911 10.6454 5.25 17.9688 5.25C23.3563 5.25 28.0046 8.14078 30.0856 12.2828C30.4721 12.2618 30.8602 12.25 31.25 12.25C32.033 12.25 32.8089 12.2925 33.5775 12.3776C32.7733 10.0441 31.3767 7.91394 29.4564 6.14753C26.3742 3.31177 22.2949 1.75 17.9688 1.75C13.6426 1.75 9.56328 3.31177 6.48086 6.14753C3.30918 9.06555 1.5625 12.9752 1.5625 17.1562C1.5625 21.0719 3.15937 24.8448 5.98145 27.6828C5.06049 30.1651 3.7148 32.4215 2.02021 34.325L1.5625 34.8376V38.5H3.125C6.01436 38.4996 8.86399 37.746 11.4483 36.2988C11.165 35.0958 10.9989 33.862 10.9531 32.6189C9.38455 33.6485 7.66647 34.3611 5.87744 34.7239Z" fill="#335AA0"/>
</svg>
