<svg width="50" height="50" viewBox="0 0 50 50" fill="none" xmlns="http://www.w3.org/2000/svg">
<path d="M45 23.375L35.4167 15.6667V10.4167C35.4677 9.36446 35.0994 8.33496 34.3925 7.55389C33.6856 6.77282 32.6979 6.30392 31.6458 6.25H7.89582C6.85117 6.3145 5.87399 6.78798 5.17598 7.56788C4.47798 8.34778 4.11535 9.37128 4.16665 10.4167V31.25C4.14732 32.0773 4.37477 32.8916 4.82001 33.5892C5.26525 34.2867 5.90811 34.8359 6.66665 35.1667C6.28298 36.1053 6.13344 37.1232 6.23096 38.1325C6.32847 39.1419 6.67011 40.1123 7.22639 40.9601C7.78266 41.8079 8.53688 42.5077 9.42395 42.999C10.311 43.4903 11.3043 43.7583 12.3181 43.7801C13.3319 43.8018 14.3357 43.5765 15.243 43.1237C16.1503 42.6708 16.9338 42.004 17.5259 41.1808C18.118 40.3576 18.5009 39.4027 18.6416 38.3985C18.7822 37.3942 18.6764 36.3709 18.3333 35.4167H31.5833C31.2407 36.3607 31.1306 37.3734 31.2623 38.369C31.3941 39.3646 31.7638 40.3138 32.3402 41.1362C32.9166 41.9586 33.6827 42.6299 34.5736 43.0935C35.4646 43.557 36.454 43.799 37.4583 43.799C38.4626 43.799 39.4521 43.557 40.343 43.0935C41.2339 42.6299 42 41.9586 42.5764 41.1362C43.1528 40.3138 43.5225 39.3646 43.6543 38.369C43.7861 37.3734 43.676 36.3607 43.3333 35.4167H43.75C44.3025 35.4167 44.8324 35.1972 45.2231 34.8065C45.6138 34.4158 45.8333 33.8859 45.8333 33.3333V25C45.8269 24.6836 45.7486 24.3729 45.6042 24.0913C45.4598 23.8098 45.2532 23.5648 45 23.375ZM41.6667 26V31.25H35.4167V21L41.6667 26ZM14.5833 37.5C14.5833 37.912 14.4611 38.3148 14.2322 38.6574C14.0033 39 13.6779 39.2671 13.2972 39.4247C12.9166 39.5824 12.4977 39.6237 12.0935 39.5433C11.6894 39.4629 11.3182 39.2645 11.0268 38.9731C10.7355 38.6818 10.5371 38.3106 10.4567 37.9064C10.3763 37.5023 10.4176 37.0834 10.5752 36.7027C10.7329 36.3221 10.9999 35.9967 11.3426 35.7678C11.6852 35.5388 12.0879 35.4167 12.5 35.4167C13.0525 35.4167 13.5824 35.6362 13.9731 36.0269C14.3638 36.4176 14.5833 36.9475 14.5833 37.5ZM25 31.25H8.33332V10.4167H31.25V31.25H25ZM39.5833 37.5C39.5833 37.912 39.4611 38.3148 39.2322 38.6574C39.0033 39 38.6779 39.2671 38.2972 39.4247C37.9166 39.5824 37.4977 39.6237 37.0935 39.5433C36.6894 39.4629 36.3182 39.2645 36.0268 38.9731C35.7355 38.6818 35.5371 38.3106 35.4567 37.9064C35.3763 37.5023 35.4176 37.0834 35.5752 36.7027C35.7329 36.3221 35.9999 35.9967 36.3426 35.7678C36.6852 35.5388 37.0879 35.4167 37.5 35.4167C38.0525 35.4167 38.5824 35.6362 38.9731 36.0269C39.3638 36.4176 39.5833 36.9475 39.5833 37.5Z" fill="#335AA0"/>
</svg>
