<svg width="41" height="38" viewBox="0 0 41 38" fill="none" xmlns="http://www.w3.org/2000/svg">
<path d="M36.4195 31.71L26.0214 22.0727C27.635 20.1393 28.5078 17.7754 28.5078 15.2891C28.5078 12.3129 27.2546 9.52227 24.9884 7.41816C22.7222 5.31406 19.7032 4.15625 16.4961 4.15625C13.289 4.15625 10.27 5.31777 8.00381 7.41816C5.73359 9.51855 4.48438 12.3129 4.48438 15.2891C4.48438 18.2615 5.7376 21.0596 8.00381 23.16C10.27 25.2641 13.285 26.4219 16.4961 26.4219C19.1787 26.4219 21.7252 25.6129 23.8112 24.1211L34.2094 33.7547C34.2399 33.783 34.2761 33.8054 34.3159 33.8207C34.3558 33.836 34.3985 33.8439 34.4416 33.8439C34.4847 33.8439 34.5274 33.836 34.5673 33.8207C34.6071 33.8054 34.6433 33.783 34.6738 33.7547L36.4195 32.1404C36.45 32.1122 36.4742 32.0786 36.4908 32.0417C36.5073 32.0048 36.5158 31.9652 36.5158 31.9252C36.5158 31.8852 36.5073 31.8456 36.4908 31.8087C36.4742 31.7718 36.45 31.7382 36.4195 31.71ZM22.8383 21.1672C21.1406 22.7369 18.8904 23.6016 16.4961 23.6016C14.1018 23.6016 11.8516 22.7369 10.1539 21.1672C8.46025 19.5938 7.52734 17.5082 7.52734 15.2891C7.52734 13.0699 8.46025 10.9807 10.1539 9.41094C11.8516 7.84121 14.1018 6.97656 16.4961 6.97656C18.8904 6.97656 21.1446 7.8375 22.8383 9.41094C24.5319 10.9844 25.4648 13.0699 25.4648 15.2891C25.4648 17.5082 24.5319 19.5975 22.8383 21.1672Z" fill="#335AA0"/>
</svg>
