<svg width="30" height="30" viewBox="0 0 30 30" fill="none" xmlns="http://www.w3.org/2000/svg">
<path d="M19.3125 20.65L15.55 16.8875C15.4125 16.75 15.25 16.725 15.1625 16.725C15.075 16.725 14.9125 16.75 14.775 16.8875L11 20.6625C10.575 21.0875 9.9125 21.775 7.7 21.775L12.3375 26.4C13.0406 27.1022 13.9937 27.4967 14.9875 27.4967C15.9813 27.4967 16.9344 27.1022 17.6375 26.4L22.2875 21.7625C21.15 21.7625 20.2 21.5375 19.3125 20.65ZM11 9.3375L14.775 13.1125C14.875 13.2125 15.025 13.275 15.1625 13.275C15.3 13.275 15.45 13.2125 15.55 13.1125L19.2875 9.375C20.175 8.45 21.1875 8.2375 22.325 8.2375L17.675 3.6C16.9719 2.89774 16.0188 2.5033 15.025 2.5033C14.0312 2.5033 13.0781 2.89774 12.375 3.6L7.7375 8.225C9.9375 8.225 10.6125 8.95 11 9.3375Z" fill="#F5F5F5"/>
<path d="M26.3875 12.3125L23.575 9.48749H22C21.325 9.48749 20.65 9.76249 20.1875 10.25L16.4375 14C16.0875 14.35 15.625 14.525 15.1625 14.525C14.6862 14.5183 14.2304 14.3306 13.8875 14L10.1125 10.2125C9.6375 9.73749 8.9875 9.46249 8.3 9.46249H6.4625L3.6 12.3375C2.89775 13.0406 2.5033 13.9937 2.5033 14.9875C2.5033 15.9812 2.89775 16.9344 3.6 17.6375L6.4625 20.5125H8.3125C8.9875 20.5125 9.6375 20.2375 10.125 19.7625L13.9 15.9875C14.25 15.6375 14.7125 15.4625 15.175 15.4625C15.6375 15.4625 16.1 15.6375 16.45 15.9875L20.2125 19.75C20.6875 20.225 21.3375 20.5 22.025 20.5H23.6L26.4125 17.675C27.1177 16.9592 27.5109 15.9934 27.5062 14.9886C27.5016 13.9838 27.0993 13.0217 26.3875 12.3125Z" fill="#F5F5F5"/>
</svg>
